<svg width="52" height="52" viewBox="0 0 52 52" fill="none" xmlns="http://www.w3.org/2000/svg">
<path d="M48.9879 44.1394C49.6317 44.7832 49.9934 45.6564 49.9934 46.5669C49.9934 47.4774 49.6317 48.3507 48.9879 48.9945C48.344 49.6383 47.4708 50 46.5603 50C45.6498 50 44.7766 49.6383 44.1328 48.9945L26.0005 30.8565L7.86254 48.9888C7.21872 49.6326 6.34551 49.9943 5.43501 49.9943C4.52451 49.9943 3.65129 49.6326 3.00747 48.9888C2.36365 48.3449 2.00195 47.4717 2.00195 46.5612C2.00195 45.6507 2.36365 44.7775 3.00747 44.1337L21.1455 26.0014L3.01318 7.86345C2.36936 7.21962 2.00767 6.34641 2.00767 5.43591C2.00767 4.52541 2.36936 3.6522 3.01318 3.00837C3.65701 2.36455 4.53022 2.00286 5.44072 2.00286C6.35122 2.00286 7.22443 2.36455 7.86826 3.00837L26.0005 21.1464L44.1385 3.00552C44.7823 2.3617 45.6555 2 46.566 2C47.4765 2 48.3498 2.3617 48.9936 3.00552C49.6374 3.64934 49.9991 4.52255 49.9991 5.43305C49.9991 6.34356 49.6374 7.21677 48.9936 7.86059L30.8556 26.0014L48.9879 44.1394Z" fill="#C34678"/>
</svg>
