<svg width="28" height="28" viewBox="0 0 28 28" fill="none" xmlns="http://www.w3.org/2000/svg">
<path d="M25.4944 23.0702C25.8163 23.3922 25.9971 23.8288 25.9971 24.2841C25.9971 24.7393 25.8163 25.176 25.4944 25.4979C25.1724 25.8198 24.7358 26.0007 24.2805 26.0007C23.8252 26.0007 23.3886 25.8198 23.0667 25.4979L14 16.4284L4.93047 25.4951C4.60854 25.817 4.17191 25.9978 3.71663 25.9978C3.26135 25.9978 2.82472 25.817 2.50279 25.4951C2.18086 25.1731 2 24.7365 2 24.2812C2 23.8259 2.18086 23.3893 2.50279 23.0674L11.5723 14.0007L2.50565 4.93116C2.18371 4.60923 2.00286 4.1726 2.00286 3.71733C2.00286 3.26205 2.18371 2.82542 2.50565 2.50348C2.82758 2.18155 3.26421 2.0007 3.71949 2.0007C4.17476 2.0007 4.6114 2.18155 4.93333 2.50348L14 11.573L23.0695 2.50206C23.3915 2.18013 23.8281 1.99927 24.2834 1.99927C24.7387 1.99927 25.1753 2.18013 25.4972 2.50206C25.8191 2.82399 26 3.26062 26 3.7159C26 4.17118 25.8191 4.60781 25.4972 4.92974L16.4277 14.0007L25.4944 23.0702Z" fill="white"/>
</svg>
